<svg width="48" height="77" viewBox="0 0 48 77" fill="none" xmlns="http://www.w3.org/2000/svg">
<path d="M38.1477 25.2727C37.892 23.1136 36.8551 21.4375 35.0369 20.2443C33.2188 19.0511 30.9886 18.4545 28.3466 18.4545C26.4148 18.4545 24.7244 18.767 23.2756 19.392C21.8409 20.017 20.7188 20.8764 19.9091 21.9702C19.1136 23.0639 18.7159 24.3068 18.7159 25.6989C18.7159 26.8636 18.9929 27.8651 19.5469 28.7031C20.1151 29.527 20.8395 30.2159 21.7202 30.7699C22.6009 31.3097 23.5241 31.7571 24.4901 32.1122C25.456 32.4531 26.3438 32.7301 27.1534 32.9432L31.5852 34.1364C32.7216 34.4347 33.9858 34.8466 35.3778 35.3722C36.7841 35.8977 38.1264 36.6151 39.4048 37.5241C40.6974 38.419 41.7628 39.5696 42.6009 40.9759C43.4389 42.3821 43.858 44.108 43.858 46.1534C43.858 48.5114 43.2401 50.642 42.0043 52.5455C40.7827 54.4489 38.9929 55.9616 36.6349 57.0838C34.2912 58.206 31.4432 58.767 28.0909 58.767C24.9659 58.767 22.2599 58.2628 19.973 57.2543C17.7003 56.2457 15.9105 54.8395 14.6037 53.0355C13.3111 51.2315 12.5795 49.1364 12.4091 46.75H17.8636C18.0057 48.3977 18.5597 49.7614 19.5256 50.8409C20.5057 51.9062 21.7415 52.7017 23.233 53.2273C24.7386 53.7386 26.358 53.9943 28.0909 53.9943C30.108 53.9943 31.919 53.6676 33.5241 53.0142C35.1293 52.3466 36.4006 51.4233 37.3381 50.2443C38.2756 49.0511 38.7443 47.6591 38.7443 46.0682C38.7443 44.6193 38.3395 43.4403 37.5298 42.5312C36.7202 41.6222 35.6548 40.8835 34.3338 40.3153C33.0128 39.7472 31.5852 39.25 30.0511 38.8239L24.6818 37.2898C21.2727 36.3097 18.5739 34.9105 16.5852 33.0923C14.5966 31.2741 13.6023 28.8949 13.6023 25.9545C13.6023 23.5114 14.2628 21.3807 15.5838 19.5625C16.919 17.7301 18.7088 16.3097 20.9531 15.3011C23.2116 14.2784 25.733 13.767 28.517 13.767C31.3295 13.767 33.8295 14.2713 36.017 15.2798C38.2045 16.2741 39.9375 17.6378 41.2159 19.3707C42.5085 21.1037 43.1903 23.071 43.2614 25.2727H38.1477Z" fill="#5367FF"/>
<path d="M29.1477 29.2727C28.892 27.1136 27.8551 25.4375 26.0369 24.2443C24.2188 23.0511 21.9886 22.4545 19.3466 22.4545C17.4148 22.4545 15.7244 22.767 14.2756 23.392C12.8409 24.017 11.7188 24.8764 10.9091 25.9702C10.1136 27.0639 9.71591 28.3068 9.71591 29.6989C9.71591 30.8636 9.9929 31.8651 10.5469 32.7031C11.1151 33.527 11.8395 34.2159 12.7202 34.7699C13.6009 35.3097 14.5241 35.7571 15.4901 36.1122C16.456 36.4531 17.3438 36.7301 18.1534 36.9432L22.5852 38.1364C23.7216 38.4347 24.9858 38.8466 26.3778 39.3722C27.7841 39.8977 29.1264 40.6151 30.4048 41.5241C31.6974 42.419 32.7628 43.5696 33.6009 44.9759C34.4389 46.3821 34.858 48.108 34.858 50.1534C34.858 52.5114 34.2401 54.642 33.0043 56.5455C31.7827 58.4489 29.9929 59.9616 27.6349 61.0838C25.2912 62.206 22.4432 62.767 19.0909 62.767C15.9659 62.767 13.2599 62.2628 10.973 61.2543C8.70028 60.2457 6.91051 58.8395 5.60369 57.0355C4.31108 55.2315 3.57955 53.1364 3.40909 50.75H8.86364C9.00568 52.3977 9.55966 53.7614 10.5256 54.8409C11.5057 55.9062 12.7415 56.7017 14.233 57.2273C15.7386 57.7386 17.358 57.9943 19.0909 57.9943C21.108 57.9943 22.919 57.6676 24.5241 57.0142C26.1293 56.3466 27.4006 55.4233 28.3381 54.2443C29.2756 53.0511 29.7443 51.6591 29.7443 50.0682C29.7443 48.6193 29.3395 47.4403 28.5298 46.5312C27.7202 45.6222 26.6548 44.8835 25.3338 44.3153C24.0128 43.7472 22.5852 43.25 21.0511 42.8239L15.6818 41.2898C12.2727 40.3097 9.57386 38.9105 7.58523 37.0923C5.59659 35.2741 4.60227 32.8949 4.60227 29.9545C4.60227 27.5114 5.26278 25.3807 6.58381 23.5625C7.91903 21.7301 9.70881 20.3097 11.9531 19.3011C14.2116 18.2784 16.733 17.767 19.517 17.767C22.3295 17.767 24.8295 18.2713 27.017 19.2798C29.2045 20.2741 30.9375 21.6378 32.2159 23.3707C33.5085 25.1037 34.1903 27.071 34.2614 29.2727H29.1477Z" fill="#00FFC4"/>
</svg>
